<svg height="449pt" viewBox="0 -46 449.254 449" width="449pt" xmlns="http://www.w3.org/2000/svg">
  <path
    d="m170.3125 247.824219h15.480469v-46.449219h-85.15625l8.339843-30.964844h-54.789062l-15.480469 46.449219h-38.707031v108.378906h154.828125zm0 0"
    fill="#ffd782"/>
  <path
    d="m418.035156 201.375-23.222656-15.480469h-162.570312v123.859375h131.601562l-23.222656 23.226563 23.222656 23.222656 46.449219-46.449219 7.742187-15.480468h30.964844v-92.898438zm0 0"
    fill="#ffd782"/>
  <path d="m100.636719 201.375 54.191406-201.273438h61.929687l-54.1875 201.273438zm0 0" fill="#e9686a"/>
  <path d="m77.414062 325.238281-7.742187 30.964844h61.933594l7.738281-30.964844zm0 0" fill="#e9686a"/>
  <g fill="#f7b166">
    <path
      d="m317.394531 224.601562h-85.152343c-4.277344 0-7.742188-3.46875-7.742188-7.742187 0-4.277344 3.464844-7.742187 7.742188-7.742187h85.152343c4.277344 0 7.742188 3.464843 7.742188 7.742187 0 4.273437-3.464844 7.742187-7.742188 7.742187zm0 0"/>
    <path
      d="m317.394531 255.566406h-85.152343c-4.277344 0-7.742188-3.464844-7.742188-7.742187 0-4.273438 3.464844-7.742188 7.742188-7.742188h85.152343c4.277344 0 7.742188 3.46875 7.742188 7.742188 0 4.277343-3.464844 7.742187-7.742188 7.742187zm0 0"/>
    <path
      d="m317.394531 286.53125h-85.152343c-4.277344 0-7.742188-3.464844-7.742188-7.742188 0-4.273437 3.464844-7.742187 7.742188-7.742187h85.152343c4.277344 0 7.742188 3.46875 7.742188 7.742187 0 4.277344-3.464844 7.742188-7.742188 7.742188zm0 0"/>
  </g>
</svg>
